# xmcd CD database file
#
# Track frame offsets:
#	150
#	11423
#	30622
#	44025
#	57330
#	75324
#	86689
#	104160
#	116973
#	130234
#	149568
#	160709
#	174096
#	184907
#	196989
#	209507
#	225153
#	234774
#	244617
#	257711
#
# Disc length: 3651 seconds
#
# Revision: 0
# Processed by: cddbd v1.5.2PL0 Copyright (c) Steve Scherf et al.
# Submitted via: CDex 1.51
#
DISCID=0c0e4114
DTITLE=Inge Brandenburg - Easy Street
DYEAR=2015
DGENRE=Jazz
TTITLE0=Moonglow
TTITLE1=Stormy Weather
TTITLE2=What A Difference A Day Made
TTITLE3=Easy Living
TTITLE4=Love for Sale
TTITLE5=I Guess I'll Have To Change My Plan
TTITLE6=Angel Eyes
TTITLE7=That Old Black Magic
TTITLE8=They All Laughed At Christopher Columbus
TTITLE9=Skylark
TTITLE10=You're Not So Easy To Forget
TTITLE11=When Sunny Gets Blue
TTITLE12=Almost Like Being In Love
TTITLE13=I've Got To Pass Your House To Get To Your House
TTITLE14=You Gotta Wail
TTITLE15=Easy Street
TTITLE16=Yardbird Suite
TTITLE17=Everytime
TTITLE18=Way Out There
TTITLE19=You Don't Know What Love Is
EXTD=YEAR: 2015
EXTT0=
EXTT1=
EXTT2=
EXTT3=
EXTT4=
EXTT5=
EXTT6=
EXTT7=
EXTT8=
EXTT9=
EXTT10=
EXTT11=
EXTT12=
EXTT13=
EXTT14=
EXTT15=
EXTT16=
EXTT17=
EXTT18=
EXTT19=
PLAYORDER=
